<svg width="17" height="17" viewBox="0 0 17 17" fill="none" xmlns="http://www.w3.org/2000/svg">
<path d="M15.4545 0H1.54545C0.691591 0 0 0.691591 0 1.54545V15.4545C0 16.3084 0.691591 17 1.54545 17H9.27273V10.0455H6.95455V7.72727H9.27273V6.48241C9.27273 4.12559 10.421 3.09091 12.3799 3.09091C13.318 3.09091 13.814 3.16045 14.049 3.19214V5.40909H12.7129C11.8815 5.40909 11.5909 5.848 11.5909 6.73664V7.72727H14.0281L13.6974 10.0455H11.5909V17H15.4545C16.3084 17 17 16.3084 17 15.4545V1.54545C17 0.691591 16.3076 0 15.4545 0Z" fill="#D9D9D9"/>
</svg>
