<svg width="17" height="17" viewBox="0 0 17 17" fill="none" xmlns="http://www.w3.org/2000/svg">
<path d="M4.95695 0C2.22349 0 0 2.22555 0 4.95972V12.043C0 14.7765 2.22555 17 4.95972 17H12.043C14.7765 17 17 14.7745 17 12.0403V4.95695C17 2.22349 14.7745 0 12.0403 0H4.95695ZM13.4583 2.83333C13.8493 2.83333 14.1667 3.15067 14.1667 3.54167C14.1667 3.93267 13.8493 4.25 13.4583 4.25C13.0673 4.25 12.75 3.93267 12.75 3.54167C12.75 3.15067 13.0673 2.83333 13.4583 2.83333ZM8.5 4.25C10.8439 4.25 12.75 6.15613 12.75 8.5C12.75 10.8439 10.8439 12.75 8.5 12.75C6.15613 12.75 4.25 10.8439 4.25 8.5C4.25 6.15613 6.15613 4.25 8.5 4.25ZM8.5 5.66667C7.74855 5.66667 7.02788 5.96518 6.49653 6.49653C5.96518 7.02788 5.66667 7.74855 5.66667 8.5C5.66667 9.25145 5.96518 9.97212 6.49653 10.5035C7.02788 11.0348 7.74855 11.3333 8.5 11.3333C9.25145 11.3333 9.97212 11.0348 10.5035 10.5035C11.0348 9.97212 11.3333 9.25145 11.3333 8.5C11.3333 7.74855 11.0348 7.02788 10.5035 6.49653C9.97212 5.96518 9.25145 5.66667 8.5 5.66667Z" fill="#D9D9D9"/>
</svg>
