<svg width="20" height="20" viewBox="0 0 20 20" fill="none" xmlns="http://www.w3.org/2000/svg">
<path fill-rule="evenodd" clip-rule="evenodd" d="M13.2239 3.09729C16.0203 5.89367 16.0203 10.4275 13.2239 13.2239C10.4275 16.0203 5.89367 16.0203 3.09729 13.2239C0.300904 10.4275 0.300904 5.89367 3.09729 3.09729C5.89367 0.300904 10.4275 0.300904 13.2239 3.09729ZM13.9524 13.9095C17.1179 10.7209 17.1107 5.56993 13.931 2.39018C10.7441 -0.796727 5.57709 -0.796727 2.39018 2.39018C-0.796727 5.57709 -0.796727 10.7441 2.39018 13.931C5.56993 17.1107 10.7209 17.1179 13.9095 13.9524L13.2096 14.6523L18.2587 19.7014C18.6571 20.0998 19.303 20.0998 19.7013 19.7014C20.0997 19.303 20.0997 18.6572 19.7013 18.2588L14.6522 13.2097L13.9524 13.9095Z" fill="black"/>
</svg>
