<svg width="19" height="17" viewBox="0 0 19 17" fill="none" xmlns="http://www.w3.org/2000/svg">
<path d="M0.393018 7.85473L4.71749 9.46876L6.39132 14.8518C6.49843 15.1966 6.92001 15.324 7.19984 15.0952L9.61037 13.1301C9.86305 12.9242 10.223 12.914 10.487 13.1056L14.8348 16.2622C15.1341 16.4798 15.5582 16.3157 15.6333 15.954L18.8182 0.633829C18.9002 0.238705 18.5119 -0.0909194 18.1357 0.0545934L0.38795 6.90114C-0.0500269 7.07005 -0.0462108 7.69014 0.393018 7.85473ZM6.12157 8.60957L14.5732 3.4042C14.7251 3.31093 14.8814 3.51631 14.7509 3.6373L7.77589 10.1209C7.53072 10.3492 7.37257 10.6546 7.32777 10.9861L7.09017 12.7469C7.05871 12.982 6.72846 13.0053 6.66358 12.7778L5.74978 9.56691C5.64512 9.20069 5.79764 8.80951 6.12157 8.60957Z" fill="#D9D9D9"/>
</svg>
