<svg width="18" height="15" viewBox="0 0 18 15" fill="none" xmlns="http://www.w3.org/2000/svg">
<path d="M17.0616 2.00683C16.4342 2.28485 15.7602 2.47271 15.0516 2.55762C15.7744 2.1248 16.329 1.43801 16.5905 0.620471C15.9142 1.02173 15.165 1.31328 14.3678 1.46957C13.7291 0.790291 12.8199 0.36499 11.813 0.36499C9.88035 0.36499 8.3129 1.93244 8.3129 3.86658C8.3129 4.1401 8.34446 4.4061 8.40307 4.66308C5.49284 4.51655 2.91474 3.12268 1.18799 1.0052C0.88742 1.52367 0.714595 2.1248 0.714595 2.76501C0.714595 3.97929 1.33301 5.05156 2.27153 5.67899C1.69744 5.66021 1.15793 5.50316 0.686041 5.24092V5.286C0.686041 6.98195 1.89206 8.39686 3.49408 8.71846C3.19952 8.79811 2.89069 8.84019 2.57209 8.84019C2.34667 8.84019 2.1265 8.81915 1.9131 8.77858C2.35869 10.1687 3.65112 11.1816 5.18326 11.2087C3.98475 12.1479 2.47516 12.7077 0.835573 12.7077C0.553041 12.7077 0.274266 12.6912 0 12.6589C1.54942 13.653 3.38888 14.2316 5.3651 14.2316C11.8047 14.2316 15.3251 8.89805 15.3251 4.27234C15.3251 4.12206 15.3213 3.97028 15.3146 3.81999C15.9984 3.32556 16.592 2.71015 17.0601 2.00908L17.0616 2.00683Z" fill="#D9D9D9"/>
</svg>
