<svg width="20" height="11" viewBox="0 0 20 11" fill="none" xmlns="http://www.w3.org/2000/svg">
<path fill-rule="evenodd" clip-rule="evenodd" d="M19.5411 0.744848C19.6801 0.315493 19.5411 0 18.8794 0H16.6914C16.135 0 15.8786 0.27254 15.7395 0.57307C15.7395 0.57307 14.6268 3.08477 13.0505 4.71628C12.5406 5.18855 12.3087 5.33882 12.0306 5.33882C11.8915 5.33882 11.6829 5.18855 11.6829 4.75923V0.744848C11.6829 0.229622 11.5287 0 11.0651 0H7.62678C7.27911 0 7.07003 0.239128 7.07003 0.465758C7.07003 0.954183 7.85812 1.06682 7.93935 2.44075V5.42472C7.93935 6.07895 7.81177 6.19756 7.5336 6.19756C6.79186 6.19756 4.98756 3.67464 3.91744 0.787765C3.70773 0.226656 3.49738 0 2.93819 0H0.750182C0.125037 0 0 0.27254 0 0.57307C0 1.10977 0.741784 3.77173 3.45387 7.29237C5.26191 9.69668 7.80932 11 10.1274 11C11.5182 11 11.6902 10.7105 11.6902 10.2119V8.39474C11.6902 7.81579 11.822 7.70025 12.2624 7.70025C12.5869 7.70025 13.1433 7.85051 14.4414 9.00975C15.9249 10.3837 16.1695 11 17.004 11H19.192C19.8171 11 20.1297 10.7105 19.9494 10.1393C19.752 9.56991 19.0437 8.74386 18.1039 7.76464C17.5939 7.2065 16.8289 6.60544 16.5971 6.30484C16.2726 5.91847 16.3653 5.74669 16.5971 5.40325C16.5971 5.40325 19.2629 1.92553 19.5411 0.744848Z" fill="#D9D9D9"/>
</svg>
